<svg t="1586659373960" class="icon" viewBox="0 0 1024 1024" version="1.1" xmlns="http://www.w3.org/2000/svg" p-id="15083" width="128" height="128"><path d="M898.048 178.176c-77.824-40.96-178.176-93.184-257.024-135.168C533.504-15.36 489.472-12.288 387.072 40.96c-77.824 40.96-178.176 93.184-257.024 135.168C12.288 247.808 0 262.144 0 378.88v269.312C0 768 21.504 790.528 125.952 846.848c78.848 40.96 179.2 94.208 258.048 135.168 104.448 55.296 155.648 55.296 254.976 0 77.824-40.96 177.152-93.184 256-134.144 92.16-54.272 129.024-99.328 129.024-195.584V380.928c0-105.472-27.648-158.72-125.952-202.752z m-57.344 280.576l-264.192 102.4v286.72c0 36.864-28.672 67.584-63.488 67.584-35.84 0-63.488-29.696-63.488-67.584v-286.72l-264.192-102.4c-40.96-16.384-65.536-60.416-54.272-99.328 11.264-38.912 53.248-58.368 94.208-41.984l286.72 110.592 288.768-111.616c40.96-16.384 82.944 3.072 94.208 41.984 10.24 38.912-13.312 83.968-54.272 100.352z" p-id="15084"></path></svg>