<svg t="1600482684032" class="icon" viewBox="0 0 1024 1024" version="1.1" xmlns="http://www.w3.org/2000/svg" p-id="4262" width="200" height="200"><path d="M1023.488 886.784V256c0-76.288-70.656-68.608-70.656-68.608h-400.896c-25.088 0-36.352-12.288-36.352-12.288s-17.408-28.672-47.104-74.752C437.248 53.248 399.36 60.928 399.36 60.928H88.064C1.536 60.928 0 143.36 0 143.36v738.816c0 91.648 70.656 80.896 70.656 80.896h888.32c75.264 0 64.512-76.288 64.512-76.288z m-166.4-437.248H166.912c-23.552 0-43.008-20.48-43.008-45.056 0-23.552 17.92-45.056 43.008-45.056h689.664c23.552 0 43.008 20.48 43.008 45.056 0.512 23.04-17.408 45.056-42.496 45.056z" p-id="4263"></path></svg>