<svg t="1589359395888" class="icon" viewBox="0 0 1024 1024" version="1.1" xmlns="http://www.w3.org/2000/svg" p-id="4533" width="128" height="128"><path d="M191.146667 109.226667C27.306667 197.973333 0 252.586667 0 512c0 266.24 27.306667 314.026667 204.8 409.6 252.586667 129.706667 361.813333 129.706667 614.4 0 177.493333-95.573333 204.8-143.36 204.8-409.6s-27.306667-314.026667-204.8-409.6C573.44-27.306667 430.08-20.48 191.146667 109.226667z m525.653333 88.746666c129.706667 54.613333 129.706667 54.613333-20.48 136.533334C539.306667 416.426667 273.066667 382.293333 273.066667 273.066667c0-116.053333 232.106667-157.013333 443.733333-75.093334z m-273.066667 512c0 143.36-20.48 150.186667-150.186666 88.746667C197.973333 757.76 136.533333 669.013333 136.533333 573.44c0-143.36 20.48-150.186667 157.013334-88.746667 88.746667 40.96 150.186667 129.706667 150.186666 225.28zM887.466667 566.613333c0 102.4-61.44 191.146667-163.84 238.933334-150.186667 68.266667-157.013333 61.44-129.706667-75.093334 34.133333-122.88 197.973333-320.853333 273.066667-320.853333 13.653333 0 20.48 75.093333 20.48 157.013333z" p-id="4534"></path></svg>