<svg t="1586656172556" class="icon" viewBox="0 0 1024 1024" version="1.1" xmlns="http://www.w3.org/2000/svg" p-id="8347" width="128" height="128"><path d="M943.815 1014.354h-310.993c-42.934 0-77.748-34.811-77.748-77.748v-310.994c0-42.937 34.814-77.749 77.748-77.749h310.992c42.939 0 77.748 34.813 77.748 77.749v310.994c0.001 42.937-34.81 77.748-77.746 77.748zM943.815 474.971h-310.993c-42.934 0-77.748-34.813-77.748-77.748v-310.994c0-42.935 34.814-77.748 77.748-77.748h310.992c42.939 0 77.748 34.813 77.748 77.748v310.994c0.001 42.935-34.81 77.748-77.746 77.748zM972.972 121.867c0-33.105-26.839-59.935-59.935-59.935h-239.717c-33.094 0-59.936 26.83-59.936 59.935v239.719c0 33.105 26.841 59.935 59.936 59.935h239.718c33.094 0 59.935-26.83 59.935-59.935v-239.719zM389.859 1014.354h-310.994c-42.935 0-77.748-34.811-77.748-77.748v-310.994c0-42.937 34.813-77.749 77.748-77.749h310.994c42.937 0 77.748 34.813 77.748 77.749v310.994c0 42.937-34.812 77.748-77.748 77.748zM389.859 474.971h-310.994c-42.935 0-77.748-34.813-77.748-77.748v-310.994c0-42.935 34.813-77.748 77.748-77.748h310.994c42.937 0 77.748 34.813 77.748 77.748v310.994c0 42.935-34.812 77.748-77.748 77.748z" p-id="8348"></path></svg>