<svg t="1586656073131" class="icon" viewBox="0 0 1024 1024" version="1.1" xmlns="http://www.w3.org/2000/svg" p-id="6963" width="128" height="128"><path d="M415.670857 657.408L279.186286 505.856a34.304 34.304 0 1 0-50.980572 45.860571L389.851429 731.136c9.801143 10.971429 25.088 14.043429 38.034285 8.923429a34.157714 34.157714 0 0 0 14.189715-9.435429l357.229714-396.726857a34.304 34.304 0 0 0-50.980572-45.860572l-332.580571 369.371429zM0 146.724571C0 65.682286 65.609143 0 146.724571 0h730.550858C958.317714 0 1024 65.609143 1024 146.724571v730.550858A146.651429 146.651429 0 0 1 877.275429 1024H146.724571A146.651429 146.651429 0 0 1 0 877.275429V146.724571z" p-id="6964"></path></svg>