<svg t="1588305902223" class="icon" viewBox="0 0 1024 1024" version="1.1" xmlns="http://www.w3.org/2000/svg" p-id="3944" width="200" height="200"><path d="M415.459556 392.533333c-19.712 0-35.640889-15.928889-35.640889-35.612444V192.085333A35.555556 35.555556 0 0 1 415.288889 156.444444h193.251555c19.712 0 35.640889 15.928889 35.640889 35.640889v164.835556c0 19.683556-15.928889 35.612444-35.640889 35.612444H547.555556v86.613334h273.066666c19.683556 0 35.640889 15.928889 35.640889 35.640889v147.541333h60.984889c19.712 0 35.640889 15.928889 35.640889 35.640889v164.835555c0 19.683556-15.928889 35.612444-35.640889 35.612445h-193.251556c-19.712 0-35.640889-15.928889-35.640888-35.612445v-164.835555c0-19.712 15.928889-35.640889 35.640888-35.640889h60.984889v-112.071111H547.555556v112.071111h60.984888c19.712 0 35.640889 15.928889 35.640889 35.640889v164.835555c0 19.683556-15.928889 35.612444-35.640889 35.612445H415.288889c-19.712 0-35.640889-15.928889-35.640889-35.612445v-164.835555c0-19.712 15.928889-35.640889 35.640889-35.640889h60.984889v-112.071111H238.848v112.071111h61.155556c19.712 0 35.640889 15.928889 35.640888 35.640889v164.835555c0 19.683556-15.928889 35.612444-35.612444 35.612445H106.752c-19.712 0-35.640889-15.928889-35.640889-35.612445v-164.835555c0-19.712 15.928889-35.640889 35.640889-35.640889h60.984889v-147.541333c0-19.683556 15.928889-35.640889 35.640889-35.640889h273.066666V392.533333h-60.984888z" p-id="3945"></path></svg>