<svg t="1586656297645" class="icon" viewBox="0 0 1024 1024" version="1.1" xmlns="http://www.w3.org/2000/svg" p-id="10029" width="128" height="128"><path d="M392.498611 584.909459s107.519839-92.415861 301.106749-72.908691c6.50239 0.665599 12.799981 1.331198 18.790371 2.047997 27.750358-37.119944 55.910316-76.799885 83.455875-117.094224l-267.109999 1.279998S641.637438 296.858691 819.198771 316.417061c10.137585 1.177598 19.353571 2.406396 27.955158 3.686395 25.446362-39.167941 49.663926-77.721483 71.475093-113.76623L711.678932 200.910035s141.209388-85.657472 255.231618-76.595085C1008.638487 50.075061 1031.883252-0.305664 1021.540868 0.001536 254.463618 24.884699 0 1024 0 1024h73.47189C128.153408 915.763362 250.879624 716.442061 250.879624 716.442061s121.855817 47.974328 259.83961 3.583995c35.174347-11.366383 88.268668-63.999904 146.994979-135.935796l-265.215602 0.819199z" p-id="10030"></path></svg>